<svg xmlns="http://www.w3.org/2000/svg" viewBox="0 0 1200 900" role="img" aria-labelledby="title desc">
  <title id="title">Tradie hero placeholder</title>
  <desc id="desc">Abstract placeholder illustration for a tradies website template</desc>
  <defs>
    <linearGradient id="bg" x1="0" y1="0" x2="1" y2="1">
      <stop offset="0%" stop-color="#fff7ed"/>
      <stop offset="100%" stop-color="#e0f2fe"/>
    </linearGradient>
  </defs>
  <rect width="1200" height="900" rx="48" fill="url(#bg)"/>
  <rect x="90" y="120" width="420" height="560" rx="28" fill="#ffffff" stroke="#d7dee7"/>
  <rect x="145" y="205" width="300" height="220" rx="18" fill="#111827"/>
  <rect x="165" y="225" width="260" height="180" rx="12" fill="#f97316" opacity="0.85"/>
  <rect x="145" y="470" width="220" height="28" rx="14" fill="#dbeafe"/>
  <rect x="145" y="520" width="280" height="18" rx="9" fill="#e5e7eb"/>
  <rect x="145" y="555" width="240" height="18" rx="9" fill="#e5e7eb"/>
  <rect x="610" y="255" width="420" height="260" rx="30" fill="#ffffff" stroke="#d7dee7"/>
  <rect x="660" y="315" width="320" height="110" rx="24" fill="#1f2937"/>
  <circle cx="735" cy="370" r="36" fill="#f97316"/>
  <rect x="790" y="340" width="150" height="24" rx="12" fill="#fff7ed"/>
  <rect x="790" y="380" width="110" height="18" rx="9" fill="#fed7aa"/>
  <rect x="700" y="570" width="270" height="120" rx="24" fill="#fff1e8" stroke="#f59e0b"/>
  <path d="M550 760c120-100 280-100 400 0" fill="none" stroke="#cbd5e1" stroke-width="14" stroke-linecap="round"/>
</svg>
